<svg width="88" height="27" viewBox="0 0 88 27" fill="none" xmlns="http://www.w3.org/2000/svg">
<path d="M84.0878 7.34766C83.1705 7.05078 78.8081 5.61901 73.7022 9.51916L74.5418 10.9537L74.5433 10.9551L75.127 11.9525C75.1329 11.9637 75.1396 11.9749 75.147 11.9854C75.3304 12.2718 75.7232 12.363 76.0243 12.189L76.0265 12.1876C76.75 11.6829 77.5253 11.2492 78.3405 10.8927C78.5329 10.8141 78.7289 10.7432 78.9235 10.6849C80.6383 10.167 82.1297 10.5179 82.7281 11.118C83.6876 12.0816 83.3673 14.3015 83.3673 14.3015C81.6614 14.3078 79.9621 14.4966 78.3013 14.8651C77.1584 15.1157 76.0665 15.5403 75.0663 16.1221C74.351 16.5348 73.7606 17.1166 73.3545 17.8115C73.0342 18.3849 72.8633 19.0228 72.8559 19.672C72.8426 20.3528 72.9706 21.0294 73.2332 21.6632C73.4684 22.2176 73.8368 22.7124 74.3088 23.1083C74.7926 23.5048 75.3578 23.8024 75.9688 23.9814C76.6598 24.1842 77.3796 24.2832 78.1023 24.2754C78.6772 24.2804 79.2505 24.2312 79.8149 24.1288C80.3091 24.0361 80.7914 23.8908 81.2523 23.6964C81.7087 23.5013 82.1437 23.2634 82.5513 22.9869C82.8184 22.8072 83.0914 22.6072 83.3695 22.3917V23.3932C83.3695 23.7336 83.6602 24.0094 84.019 24.0094H85.5163C85.6199 24.0179 85.7242 24.02 85.8285 24.0151H87.9997V13.4369C88.0101 12.5364 87.7157 8.52254 84.0864 7.34906L84.0878 7.34766ZM81.6414 20.8399C80.9971 21.1199 80.2943 21.2561 79.5863 21.2393C79.0174 21.2715 78.4537 21.1284 77.9773 20.8308C77.5934 20.5592 77.401 20.0967 77.401 19.4432C77.3988 19.1211 77.4979 18.806 77.6844 18.5372C77.9315 18.2136 78.2636 17.9574 78.6483 17.7939C79.2305 17.5377 79.8475 17.3595 80.4815 17.2633C81.4372 17.1082 82.4026 17.0128 83.3717 16.9777L83.3732 19.5906C82.8783 20.1002 82.2909 20.5234 81.6414 20.8399Z" fill="#060708"/>
<path d="M13.6453 11.9139V14.9332C13.6453 15.2743 13.9368 15.5515 14.297 15.5515H17.5469V19.5436C16.9336 19.8138 16.2952 20.03 15.6405 20.19C13.8007 20.5922 11.878 20.4813 10.1025 19.8707C9.1327 19.5162 8.25755 18.9632 7.53924 18.2508C6.8002 17.5005 6.23576 16.6113 5.88363 15.6399C5.47527 14.5107 5.27701 13.3225 5.29625 12.1286C5.28071 11.0113 5.46196 9.89956 5.83258 8.83908C6.1566 7.90983 6.67592 7.05218 7.35947 6.31805C8.026 5.6162 8.84789 5.06245 9.76595 4.69749C10.7661 4.30516 11.841 4.11005 12.9233 4.12479C13.5358 4.11987 14.1469 4.15777 14.7535 4.23919C15.2514 4.30867 15.7418 4.41816 16.2197 4.56695C16.6547 4.70381 17.0779 4.87085 17.4869 5.06596C17.8835 5.25756 18.2889 5.47303 18.7031 5.71236C18.712 5.71867 18.7216 5.72359 18.7312 5.7292L19.4673 6.21628C19.4769 6.2226 19.4865 6.22892 19.4962 6.23453C19.7876 6.40508 20.1694 6.31875 20.3491 6.04222L22.3095 3.1415C21.2028 2.16594 19.9082 1.40163 18.4967 0.891388C17.6919 0.600824 16.8596 0.381849 16.0118 0.236567C15.0561 0.0758448 14.0862 -0.00346366 13.1142 0.00144926C11.2618 -0.0238171 9.42121 0.281485 7.68793 0.901916C6.14329 1.45848 4.73624 2.31122 3.55483 3.4068C2.40374 4.49396 1.50788 5.79868 0.924198 7.23606C0.293912 8.79767 -0.0197507 10.4582 0.000962886 12.13C-0.0175314 13.7948 0.310187 15.4469 0.966365 16.991C1.58629 18.441 2.52063 19.7514 3.7087 20.8364C4.94042 21.9453 6.39629 22.8051 7.98828 23.3659C9.77704 23.9919 11.6716 24.2993 13.5773 24.274C15.1278 24.2825 16.671 24.0754 18.1579 23.6606C19.6249 23.2402 21.0046 22.5847 22.237 21.7214V11.9167L13.6453 11.9139Z" fill="#060708"/>
<path d="M69.9745 2.00802C69.8176 1.68096 69.5987 1.38338 69.3279 1.13212C69.0542 0.879457 68.7317 0.679431 68.378 0.542571C68.0082 0.399395 67.6124 0.327105 67.2129 0.329912C66.8304 0.328509 66.4524 0.400097 66.1003 0.54187C65.7556 0.680133 65.4426 0.880159 65.1778 1.13142C64.9122 1.38408 64.6977 1.68096 64.5468 2.00802C64.3907 2.34631 64.3108 2.71197 64.3137 3.08114C64.3108 3.44751 64.3899 3.81036 64.5468 4.14584C64.6992 4.46939 64.913 4.76346 65.1778 5.01402C65.4426 5.26528 65.7556 5.46531 66.1003 5.60357C66.4517 5.74534 66.8304 5.81764 67.2129 5.81623C67.6124 5.81904 68.0082 5.74675 68.378 5.60357C68.7317 5.46741 69.0535 5.26669 69.3272 5.01402C69.5965 4.76417 69.8154 4.47009 69.9737 4.14584C70.1365 3.81246 70.2186 3.44891 70.2156 3.08114C70.2186 2.71127 70.1365 2.34491 69.9745 2.00802Z" fill="#060708"/>
<path d="M69.6616 8.04108H64.8686V23.9673H69.6616V8.04108Z" fill="#060708"/>
<path d="M40.5871 13.446C40.5967 12.5462 40.3022 8.53588 36.6759 7.36239C35.7593 7.06622 31.4006 5.63515 26.2998 9.5318L27.1387 10.965L27.1402 10.9664L27.7239 11.963C27.7298 11.9742 27.7365 11.9854 27.7439 11.996C27.9266 12.2816 28.3194 12.3729 28.6205 12.1995L28.6227 12.1974C29.3455 11.6928 30.12 11.2597 30.9353 10.9039C31.1276 10.826 31.3229 10.7544 31.5175 10.6962C33.2308 10.1789 34.7207 10.5291 35.3184 11.1292C36.2771 12.0921 35.9576 14.31 35.9576 14.31C34.2531 14.3163 32.5554 14.5044 30.896 14.8728C29.7546 15.1234 28.6634 15.5473 27.6647 16.1284C26.9501 16.5404 26.3605 17.1222 25.9544 17.8164C25.6348 18.3898 25.4639 19.0271 25.4565 19.6756C25.4424 20.3556 25.5712 21.0315 25.8338 21.6646C26.069 22.2183 26.4374 22.7124 26.9087 23.1083C27.3925 23.5048 27.9569 23.8017 28.5672 23.9807C29.2575 24.1835 29.9765 24.2825 30.6985 24.274C31.2726 24.279 31.8459 24.2298 32.4096 24.1274C32.9038 24.0347 33.3854 23.8894 33.8455 23.6957C34.302 23.5006 34.7362 23.2634 35.1431 22.9869C35.4094 22.8072 35.6824 22.6072 35.9605 22.3924V23.3237C35.962 23.6676 36.249 23.9491 36.6108 23.9617L40.5885 23.9673L40.5871 13.446ZM34.2317 20.8427C33.5881 21.1221 32.886 21.2589 32.1781 21.2421C31.6099 21.2744 31.0462 21.1312 30.5705 20.8343C30.1866 20.5627 29.995 20.1009 29.995 19.4482C29.9928 19.1267 30.0912 18.8116 30.2776 18.5428C30.5247 18.2199 30.8561 17.9638 31.24 17.8002C31.8215 17.5441 32.4377 17.3658 33.071 17.2696C34.026 17.1145 34.9907 17.0198 35.9583 16.9847L35.9598 19.5948C35.4649 20.1037 34.8805 20.5262 34.2317 20.8427Z" fill="#060708"/>
<path d="M61.6698 15.4203C61.6846 14.2763 61.3547 7.25852 54.7389 7.16868C51.5623 7.17641 49.8016 8.70853 49.1307 9.35212L49.1329 0.499759H49.1307V0.307453H44.4265V4.07917H44.4294L44.4242 23.968L48.5381 23.9624C48.8962 23.9624 49.1869 23.6866 49.1869 23.3469V22.4752C50.8151 24.2312 53.4162 24.2579 53.9044 24.2516C61.7068 24.279 61.6861 16.6639 61.6713 15.4196L61.6698 15.4203ZM52.4996 20.8743C50.6176 20.8757 49.3696 19.6538 49.1299 19.1057V12.5462C49.6396 11.6219 51.1724 10.5818 52.9442 10.5825C53.448 10.5726 56.9086 10.7256 56.9086 15.5143C56.9234 21.1094 53.0411 20.882 52.4996 20.8743Z" fill="#060708"/>
</svg>
